<svg width="14" height="14" viewBox="0 0 14 14" fill="none" xmlns="http://www.w3.org/2000/svg">
<path d="M12.5436 8.53752C11.5619 8.8128 10.5247 8.82182 9.53836 8.56366C8.55205 8.3055 7.65223 7.78946 6.93131 7.06854C6.21039 6.34762 5.69436 5.4478 5.43619 4.46149C5.17803 3.47519 5.18706 2.43794 5.46233 1.45627C4.4945 1.72565 3.61413 2.24391 2.90892 2.95941C2.20371 3.67492 1.69827 4.56271 1.44295 5.53435C1.18763 6.50599 1.19133 7.52756 1.45369 8.49732C1.71605 9.46709 2.22791 10.3512 2.93829 11.0616C3.64866 11.7719 4.53276 12.2838 5.50253 12.5462C6.47229 12.8085 7.49387 12.8122 8.4655 12.5569C9.43714 12.3016 10.3249 11.7961 11.0404 11.0909C11.7559 10.3857 12.2742 9.50535 12.5436 8.53752Z" stroke="black" stroke-linecap="round" stroke-linejoin="round"/>
</svg>
